
<svg xmlns="http://www.w3.org/2000/svg" viewBox="0 0 64 64">
  <defs>
    <linearGradient id="bg" x1="0" y1="0" x2="0" y2="1">
      <stop offset="0" stop-color="#1f1f1f"></stop>
      <stop offset="1" stop-color="#0e0e0e"></stop>
    </linearGradient>
    <linearGradient id="stroke" x1="0" y1="0" x2="1" y2="1">
      <stop offset="0" stop-color="#99cbff"></stop>
      <stop offset="1" stop-color="#427bb3"></stop>
    </linearGradient>
  </defs>
  <rect width="64" height="64" rx="14" fill="url(#bg)"></rect>
  <rect x="0.5" y="0.5" width="63" height="63" rx="13.5" fill="none" stroke="#2d2d2d"></rect>

  <g transform="translate(8 8) scale(2)">
    <path d="M12 1.5 L21.5 6.5 V17.5 L12 22.5 L2.5 17.5 V6.5 Z" fill="#141414" stroke="url(#stroke)" stroke-width="1.4" stroke-linejoin="round"></path>
    <path d="M12 1.5 L21.5 6.5 L12 12 Z" fill="#99cbff" opacity="0.16"></path>
    <g fill="#99cbff">
      <rect x="6.0" y="10.5" width="1.6" height="3" rx="0.6"></rect>
      <rect x="8.4" y="8.5" width="1.6" height="7" rx="0.6"></rect>
      <rect x="10.8" y="6.5" width="1.6" height="11" rx="0.6"></rect>
      <rect x="13.2" y="9" width="1.6" height="6" rx="0.6"></rect>
      <rect x="15.6" y="11" width="1.6" height="2" rx="0.6"></rect>
    </g>
  </g>
</svg>
